# xmcd
#
# Track frame offsets:
#	150
#	14227
#	39995
#	53078
#	73090
#	89959
#	102682
#	116295
#	137114
#	150947
#
# Disc length: 2279 seconds
#
# Revision: 0
# Processed by: cddbd v1.5.2PL0 Copyright (c) Steve Scherf et al.
# Submitted via: EasyCDDAExtractor 10.0.5.1
#
DISCID=8b08e50a
DTITLE=Josh White - Blues Legends in London
DYEAR=1900
DGENRE=
TTITLE0=How Long Blues
TTITLE1=Careless Love
TTITLE2=Oh Lula
TTITLE3=St Louis Blues
TTITLE4=Kansas City Blues
TTITLE5=I Had To Stoop To Conquer You
TTITLE6=I Know How To Do It
TTITLE7=Dink's Blues
TTITLE8=Mint Julep
TTITLE9=Good Morning Blues
EXTD=
EXTT0=
EXTT1=
EXTT2=
EXTT3=
EXTT4=
EXTT5=
EXTT6=
EXTT7=
EXTT8=
EXTT9=
PLAYORDER=
